<?xml version="1.0" encoding="UTF-8" standalone="no"?>
<!-- Generator: Adobe Illustrator 15.0.0, SVG Export Plug-In . SVG Version: 6.00 Build 0)  -->

<svg
   xmlns:dc="http://purl.org/dc/elements/1.1/"
   xmlns:cc="http://creativecommons.org/ns#"
   xmlns:rdf="http://www.w3.org/1999/02/22-rdf-syntax-ns#"
   xmlns:svg="http://www.w3.org/2000/svg"
   xmlns="http://www.w3.org/2000/svg"
   xmlns:sodipodi="http://sodipodi.sourceforge.net/DTD/sodipodi-0.dtd"
   xmlns:inkscape="http://www.inkscape.org/namespaces/inkscape"
   version="1.1"
   id="Capa_1"
   x="0px"
   y="0px"
   width="512px"
   height="512px"
   viewBox="0 0 512 512"
   enable-background="new 0 0 512 512"
   xml:space="preserve"
   inkscape:version="0.91 r13725"
   sodipodi:docname="search.svg"><metadata
     id="metadata17"><rdf:RDF><cc:Work
         rdf:about=""><dc:format>image/svg+xml</dc:format><dc:type
           rdf:resource="http://purl.org/dc/dcmitype/StillImage" /></cc:Work></rdf:RDF></metadata><defs
     id="defs15" /><sodipodi:namedview
     pagecolor="#ffffff"
     bordercolor="#666666"
     borderopacity="1"
     objecttolerance="10"
     gridtolerance="10"
     guidetolerance="10"
     inkscape:pageopacity="0"
     inkscape:pageshadow="2"
     inkscape:window-width="1920"
     inkscape:window-height="1032"
     id="namedview13"
     showgrid="false"
     inkscape:zoom="0.4609375"
     inkscape:cx="-58.576271"
     inkscape:cy="256"
     inkscape:window-x="0"
     inkscape:window-y="0"
     inkscape:window-maximized="1"
     inkscape:current-layer="g3" /><g
     id="g3"><g
       id="g5"
       style="fill:#191919;fill-opacity:1"><path
         fill="#333333"
         d="M497.933,430.067l-117.46-117.47c-17.502,27.219-40.663,50.369-67.883,67.872l117.47,117.47    c18.754,18.749,49.159,18.749,67.872,0C516.687,479.221,516.687,448.815,497.933,430.067z"
         id="path7"
         style="fill:#191919;fill-opacity:1" /><path
         fill="#333333"
         d="M383.999,192c0-106.029-85.966-192-191.998-192c-106.029,0-192,85.971-192,192s85.971,191.996,192,191.996    C298.033,383.996,383.999,298.029,383.999,192z M192.001,335.994c-79.406,0-143.999-64.586-143.999-143.993    c0-79.406,64.592-143.999,143.999-143.999c79.404,0,144.002,64.592,144.002,143.999    C336.003,271.408,271.405,335.994,192.001,335.994z"
         id="path9"
         style="fill:#191919;fill-opacity:1" /><path
         fill="#333333"
         d="M80.002,192h31.996c0-44.111,35.892-80,80.001-80V80.001C130.252,80.001,80.002,130.251,80.002,192z"
         id="path11"
         style="fill:#191919;fill-opacity:1" /></g></g></svg>