<svg xmlns="http://www.w3.org/2000/svg" width="1983" height="793" viewBox="266 186 1456 414" role="img" aria-labelledby="title"><title id="title">Range Bulk SMS Platform</title><path fill="#04648C" fill-rule="evenodd" d="M635.218,596.496 C633.386,595.700 622.375,585.308 610.301,572.981 C598.403,560.832 587.730,550.354 586.584,549.696 C585.022,548.800 559.566,548.370 485.000,547.981 C392.118,547.497 385.134,547.341 380.000,545.635 C368.684,541.875 360.833,536.953 351.966,528.059 C345.195,521.268 342.558,517.730 339.200,510.930 C332.495,497.352 331.772,492.036 332.275,460.000 C332.561,441.842 333.135,431.147 333.965,428.517 C336.700,419.853 341.312,411.908 347.417,405.339 C355.056,397.120 362.399,392.518 373.338,389.094 L381.500,386.539 L481.500,386.206 C547.681,385.986 584.593,386.232 590.646,386.934 C595.676,387.517 603.014,389.084 606.953,390.417 C630.649,398.434 650.095,419.325 656.977,444.159 C658.914,451.149 659.000,454.279 659.000,517.770 C659.000,580.865 658.908,584.260 657.106,587.790 C654.767,592.373 652.496,594.477 647.746,596.462 C643.221,598.352 639.514,598.362 635.218,596.496 Z M434.509,484.135 C442.582,480.467 447.967,471.013 446.496,463.091 C445.489,457.666 442.097,452.339 437.718,449.304 C434.735,447.237 432.308,446.492 427.644,446.213 C422.612,445.911 420.686,446.279 417.000,448.250 C414.040,449.832 411.477,452.307 409.512,455.480 C407.080,459.407 406.538,461.347 406.603,465.903 C406.691,472.115 408.402,476.153 412.661,480.195 C418.716,485.942 427.173,487.467 434.509,484.135 Z M503.247,482.394 C508.828,478.472 511.962,472.847 511.984,466.718 C512.025,454.808 503.529,446.000 492.000,446.000 C483.656,446.000 476.744,450.582 473.548,458.232 C470.618,465.245 472.189,474.311 477.298,479.868 C483.570,486.691 495.483,487.851 503.247,482.394 Z M567.093,483.673 C572.926,480.594 576.872,474.873 577.641,468.381 C578.357,462.340 576.895,457.217 573.205,452.832 C565.906,444.158 550.942,443.817 543.367,452.153 C539.138,456.806 537.762,460.917 538.188,467.619 C538.519,472.810 539.127,474.589 541.624,477.674 C548.175,485.768 558.512,488.203 567.093,483.673 Z M763.000,557.405 C755.034,554.479 754.000,552.198 754.000,537.550 L754.000,526.000 L757.500,526.000 L761.000,526.000 L761.015,535.750 C761.024,541.597 761.536,546.501 762.294,548.000 C763.321,550.030 764.300,550.500 767.500,550.500 C770.700,550.500 771.679,550.030 772.706,548.000 C773.464,546.501 773.976,541.597 773.985,535.750 L774.000,526.000 L777.500,526.000 L781.000,526.000 L781.000,537.453 C781.000,543.978 780.503,549.996 779.846,551.439 C779.211,552.832 777.616,554.677 776.301,555.538 C773.785,557.187 765.552,558.342 763.000,557.405 Z M895.686,556.983 C892.321,555.973 889.988,554.176 890.032,552.628 C890.049,552.007 890.687,550.678 891.449,549.673 C892.746,547.962 892.993,547.950 895.335,549.484 C896.943,550.538 899.384,551.012 902.168,550.811 C905.724,550.556 906.500,550.143 906.500,548.508 C906.500,546.956 905.061,546.010 900.000,544.232 C896.425,542.977 892.712,541.011 891.750,539.864 C889.799,537.539 889.460,532.877 891.030,529.945 C893.514,525.303 903.504,523.513 910.532,526.449 C912.439,527.246 914.000,528.125 914.000,528.402 C914.000,528.679 913.470,530.069 912.822,531.492 C912.016,533.260 911.147,533.875 910.072,533.436 C904.188,531.037 902.736,530.799 900.422,531.854 C896.247,533.756 897.560,535.691 904.622,538.041 C908.264,539.253 912.089,541.089 913.122,542.122 C915.737,544.737 915.647,551.353 912.960,554.040 C911.838,555.162 909.784,556.512 908.395,557.040 C905.390,558.183 899.595,558.157 895.686,556.983 Z M982.942,557.052 C978.935,555.836 976.000,554.036 976.000,552.794 C976.000,552.169 976.730,550.851 977.621,549.866 C979.107,548.224 979.489,548.201 982.178,549.592 C983.842,550.453 986.927,550.978 989.306,550.805 C992.731,550.556 993.500,550.133 993.500,548.501 C993.500,546.935 992.093,546.023 987.000,544.288 C980.288,542.000 976.000,538.376 976.000,534.991 C976.000,531.798 978.028,528.415 980.990,526.665 C984.545,524.565 993.114,524.491 997.050,526.526 C1000.266,528.189 1000.691,529.673 998.722,532.365 C997.547,533.972 997.207,533.988 994.472,532.562 C990.756,530.624 987.941,530.586 985.441,532.439 C983.719,533.715 983.669,534.042 985.000,535.333 C985.825,536.134 989.058,537.515 992.184,538.403 C998.491,540.194 1002.000,543.594 1002.000,547.912 C1002.000,555.241 992.301,559.892 982.942,557.052 Z M1224.013,555.725 C1218.675,552.903 1216.000,548.209 1216.000,541.667 C1216.000,531.976 1221.297,525.972 1230.520,525.207 C1240.372,524.390 1246.692,529.618 1247.704,539.421 C1248.149,543.729 1247.817,545.747 1246.071,549.354 C1244.440,552.722 1242.791,554.407 1239.624,555.940 C1234.104,558.612 1229.349,558.547 1224.013,555.725 Z M1237.340,549.177 C1239.595,546.685 1240.420,539.138 1238.777,536.030 C1238.059,534.672 1236.302,532.904 1234.873,532.102 C1232.731,530.900 1231.747,530.862 1229.267,531.889 C1227.613,532.575 1225.751,534.251 1225.130,535.615 C1223.326,539.574 1223.758,545.423 1226.073,548.365 C1227.657,550.380 1229.033,551.000 1231.918,551.000 C1234.298,551.000 1236.299,550.327 1237.340,549.177 Z M714.000,541.588 L714.000,526.000 L718.750,525.803 C726.312,525.489 732.282,525.979 735.263,527.159 C739.365,528.784 740.644,535.632 737.459,538.923 C736.285,540.137 736.444,540.682 738.541,542.626 C741.737,545.587 741.756,550.009 738.589,553.694 C736.257,556.408 735.812,556.511 725.089,556.838 L714.000,557.177 L714.000,541.588 Z M732.500,547.500 C732.500,544.586 732.349,544.491 727.250,544.198 L722.000,543.895 L722.000,547.500 L722.000,551.105 L727.250,550.802 C732.349,550.509 732.500,550.414 732.500,547.500 Z M731.839,535.620 C732.305,533.169 730.388,532.034 725.750,532.015 C722.232,532.001 722.000,532.189 722.000,535.055 C722.000,538.074 722.054,538.106 726.741,537.805 C730.448,537.566 731.560,537.090 731.839,535.620 Z M795.000,540.893 C795.000,526.616 795.180,524.855 796.582,525.393 C797.452,525.727 799.252,526.000 800.582,526.000 L803.000,526.000 L803.000,538.500 L803.000,551.000 L810.000,551.000 L817.000,551.000 L817.000,554.000 L817.000,557.000 L806.000,557.000 L795.000,557.000 L795.000,540.893 Z M829.000,541.500 L829.000,526.000 L832.952,526.000 L836.905,526.000 L837.202,531.882 L837.500,537.763 L842.500,531.950 C847.141,526.554 847.814,526.132 851.878,526.068 L856.256,526.000 L853.878,528.935 C852.570,530.549 850.055,533.629 848.289,535.779 L845.079,539.688 L851.039,547.809 C854.318,552.276 857.000,556.171 857.000,556.465 C857.000,556.759 855.022,557.000 852.604,557.000 C848.411,557.000 848.054,556.763 844.854,551.837 C843.009,548.997 841.197,546.214 840.826,545.651 C840.385,544.981 839.609,545.079 838.576,545.937 C837.535,546.800 837.000,548.902 837.000,552.122 L837.000,557.000 L833.000,557.000 L829.000,557.000 L829.000,541.500 Z M928.000,541.500 L928.000,526.000 L932.304,526.000 L936.608,526.000 L940.655,535.067 C942.881,540.053 945.023,544.216 945.415,544.317 C945.807,544.417 947.965,540.337 950.210,535.250 L954.292,526.000 L958.646,526.000 L963.000,526.000 L963.000,541.500 L963.000,557.000 L959.538,557.000 L956.075,557.000 L955.788,547.750 L955.500,538.500 L951.775,546.250 C948.412,553.248 947.772,554.000 945.184,554.000 C942.569,554.000 942.070,553.383 939.479,546.948 C937.918,543.069 936.271,539.667 935.820,539.389 C935.369,539.110 935.000,542.959 935.000,547.941 L935.000,557.000 L931.500,557.000 L928.000,557.000 L928.000,541.500 Z M1035.000,541.667 C1035.000,533.233 1035.186,526.146 1035.414,525.917 C1035.641,525.688 1040.132,525.725 1045.394,526.000 C1054.019,526.451 1055.217,526.756 1057.555,529.097 C1059.150,530.695 1060.333,533.198 1060.627,535.597 C1061.552,543.148 1055.950,547.978 1046.250,547.994 C1043.066,548.000 1043.000,548.091 1043.000,552.500 L1043.000,557.000 L1039.000,557.000 L1035.000,557.000 L1035.000,541.667 Z M1052.129,539.826 C1053.350,537.900 1053.185,534.585 1051.800,533.200 C1051.140,532.540 1048.890,532.000 1046.800,532.000 L1043.000,532.000 L1043.000,537.132 L1043.000,542.263 L1047.144,541.707 C1049.423,541.402 1051.666,540.555 1052.129,539.826 Z M1073.000,541.500 L1073.000,526.000 L1077.000,526.000 L1081.000,526.000 L1081.000,538.500 L1081.000,551.000 L1088.000,551.000 L1095.000,551.000 L1095.000,554.000 L1095.000,557.000 L1084.000,557.000 L1073.000,557.000 L1073.000,541.500 Z M1106.000,556.026 C1106.000,555.490 1107.284,551.778 1108.854,547.776 C1110.423,543.774 1112.937,537.237 1114.441,533.250 L1117.175,526.000 L1121.480,526.000 L1125.785,526.000 L1129.831,536.250 C1132.057,541.888 1134.799,548.862 1135.924,551.750 L1137.971,557.000 L1133.933,557.000 C1130.346,557.000 1129.779,556.665 1128.850,554.000 C1127.837,551.094 1127.606,551.000 1121.500,551.000 C1115.394,551.000 1115.163,551.094 1114.150,554.000 C1113.253,556.574 1112.600,557.000 1109.552,557.000 C1107.598,557.000 1106.000,556.562 1106.000,556.026 Z M1124.600,542.544 C1123.647,538.745 1122.108,535.000 1121.500,535.000 C1120.892,535.000 1119.353,538.745 1118.400,542.544 C1117.828,544.822 1118.053,545.000 1121.500,545.000 C1124.947,545.000 1125.172,544.822 1124.600,542.544 Z M1153.635,555.250 C1153.360,554.288 1153.125,549.000 1153.113,543.500 C1153.101,538.000 1153.070,533.163 1153.045,532.750 C1153.020,532.337 1150.946,532.000 1148.437,532.000 C1143.909,532.000 1143.876,531.975 1144.187,528.817 L1144.500,525.634 L1157.000,525.634 L1169.500,525.634 L1169.813,528.817 C1170.124,531.975 1170.091,532.000 1165.563,532.000 L1161.000,532.000 L1161.000,544.500 L1161.000,557.000 L1157.567,557.000 C1155.155,557.000 1153.986,556.480 1153.635,555.250 Z M1182.078,541.500 L1182.271,526.000 L1190.885,525.858 C1195.623,525.779 1200.625,525.686 1202.000,525.650 C1204.098,525.596 1204.550,526.101 1204.813,528.793 L1205.127,532.000 L1197.563,532.000 L1190.000,532.000 L1190.000,535.452 L1190.000,538.905 L1196.250,539.202 C1202.240,539.488 1202.513,539.614 1202.816,542.250 L1203.133,545.000 L1196.566,545.000 L1190.000,545.000 L1190.000,551.000 L1190.000,557.000 L1185.943,557.000 L1181.886,557.000 L1182.078,541.500 Z M1260.225,541.350 L1260.500,525.701 L1269.427,525.917 C1274.668,526.043 1279.462,526.705 1281.037,527.519 C1286.568,530.379 1287.390,539.406 1282.535,543.967 L1280.101,546.254 L1283.538,551.627 L1286.975,557.000 L1282.545,557.000 C1278.271,557.000 1278.017,556.825 1275.308,552.001 C1273.238,548.317 1271.908,547.002 1270.250,547.001 C1268.217,547.000 1268.000,547.481 1268.000,552.000 L1268.000,557.000 L1263.975,557.000 L1259.949,557.000 L1260.225,541.350 Z M1276.800,539.800 C1277.460,539.140 1278.000,537.655 1278.000,536.500 C1278.000,533.400 1276.071,532.000 1271.800,532.000 L1268.000,532.000 L1268.000,536.500 L1268.000,541.000 L1271.800,541.000 C1273.890,541.000 1276.140,540.460 1276.800,539.800 Z M1299.000,541.500 L1299.000,526.000 L1303.042,526.000 C1307.072,526.000 1307.092,526.019 1310.046,532.750 C1311.675,536.462 1313.637,540.850 1314.404,542.500 L1315.800,545.500 L1320.367,535.750 L1324.934,526.000 L1328.967,526.000 L1333.000,526.000 L1333.000,541.500 L1333.000,557.000 L1329.500,557.000 L1326.000,557.000 L1325.903,547.750 L1325.807,538.500 L1322.172,546.296 C1318.759,553.617 1318.360,554.074 1315.630,553.796 C1313.061,553.534 1312.336,552.629 1309.392,546.000 L1306.060,538.500 L1306.030,547.750 L1306.000,557.000 L1302.500,557.000 L1299.000,557.000 L1299.000,541.500 Z M1381.863,556.337 C1380.412,556.090 1376.829,554.451 1373.899,552.694 C1366.554,548.290 1362.720,541.967 1362.172,533.355 C1361.946,529.817 1362.293,525.027 1362.942,522.711 C1364.878,515.803 1370.098,509.590 1376.682,506.357 L1382.500,503.500 L1415.500,503.000 L1448.500,502.500 L1453.819,499.554 C1460.295,495.966 1464.459,491.380 1467.899,484.046 L1470.500,478.500 L1470.500,433.500 C1470.500,389.568 1470.449,388.390 1468.351,383.851 C1465.935,378.626 1459.768,372.008 1454.803,369.314 C1452.123,367.860 1448.533,367.456 1435.771,367.173 C1417.243,366.763 1412.772,367.808 1405.438,374.264 C1396.235,382.365 1392.201,396.413 1395.440,409.088 C1398.236,420.035 1404.528,427.557 1413.782,431.020 C1418.001,432.598 1421.564,433.000 1431.341,433.000 C1442.514,433.000 1444.068,433.229 1448.771,435.573 C1458.579,440.461 1462.681,449.677 1461.802,464.853 C1461.417,471.519 1460.826,473.757 1458.413,477.712 C1456.242,481.269 1454.096,483.207 1450.066,485.250 C1444.758,487.941 1444.264,488.000 1427.071,487.993 C1412.874,487.987 1407.873,487.596 1401.024,485.954 C1385.022,482.118 1369.759,472.691 1359.495,460.304 C1352.194,451.492 1347.903,443.749 1343.810,432.000 L1340.500,422.500 L1340.504,401.000 L1340.509,379.500 L1343.803,370.000 C1348.730,355.793 1354.210,346.815 1364.000,336.905 C1373.960,326.825 1382.995,321.147 1396.220,316.658 L1405.500,313.508 L1432.500,313.504 C1458.028,313.500 1459.909,313.628 1467.000,315.844 C1490.085,323.060 1507.887,338.242 1517.107,358.577 C1522.995,371.561 1523.245,374.087 1523.729,425.420 C1524.030,457.299 1523.800,475.570 1523.013,482.420 C1519.610,512.014 1502.923,536.252 1477.500,548.529 C1461.664,556.177 1461.051,556.263 1420.500,556.539 C1400.700,556.674 1383.313,556.583 1381.863,556.337 Z M868.000,489.227 C859.597,488.227 858.206,487.012 819.694,447.069 C777.560,403.369 778.992,405.376 779.010,390.072 C779.018,383.144 779.474,380.541 781.387,376.500 C784.183,370.596 788.953,365.796 794.500,363.305 C797.931,361.764 802.410,361.437 826.000,361.004 C851.761,360.532 853.756,360.363 857.545,358.334 C863.919,354.922 869.649,348.014 871.560,341.440 C875.357,328.382 869.902,316.521 857.500,310.867 C853.876,309.215 850.257,309.044 819.000,309.044 C786.431,309.044 784.248,309.158 780.000,311.081 C774.826,313.423 770.547,317.189 768.161,321.500 C766.670,324.194 766.449,331.902 766.000,397.000 L765.500,469.500 L762.589,474.754 C757.369,484.174 748.771,488.944 736.946,488.978 C730.812,488.996 728.425,488.518 724.241,486.433 C718.311,483.478 713.531,478.454 710.822,472.332 C709.013,468.240 708.945,464.614 709.217,385.781 L709.500,303.500 L712.760,295.000 C719.203,278.198 730.911,264.972 745.500,258.018 C749.900,255.921 755.975,253.596 759.000,252.852 C763.261,251.805 776.099,251.500 816.000,251.500 C862.114,251.500 868.232,251.687 874.500,253.282 C889.637,257.136 906.020,267.717 915.523,279.778 C921.030,286.767 928.276,301.225 930.671,310.000 C931.970,314.761 932.448,320.245 932.459,330.500 C932.473,343.742 932.296,345.015 929.195,354.000 C919.454,382.224 898.466,401.639 869.838,408.909 L862.760,410.707 L878.633,427.103 C919.880,469.714 920.989,470.996 920.996,476.101 C921.003,480.892 918.902,484.897 915.162,487.223 C911.664,489.398 910.581,489.501 891.000,489.513 C879.725,489.519 869.375,489.391 868.000,489.227 Z M1006.000,488.832 C997.438,487.619 984.350,483.058 977.398,478.865 C963.661,470.580 953.108,459.328 945.637,445.000 C938.928,432.134 936.056,419.356 936.020,402.208 C935.997,391.441 937.951,380.932 942.080,369.618 C946.769,356.770 952.215,348.564 963.395,337.500 C971.532,329.448 975.253,326.587 982.500,322.815 C987.450,320.238 995.100,317.088 999.500,315.815 C1007.083,313.621 1009.089,313.500 1038.000,313.500 C1064.675,313.500 1069.378,313.735 1075.500,315.376 C1089.665,319.173 1099.823,324.936 1110.867,335.443 C1121.508,345.566 1129.584,359.142 1133.068,372.766 C1134.832,379.662 1135.000,384.104 1135.000,423.794 C1135.000,454.223 1134.647,468.446 1133.824,471.193 C1132.189,476.651 1125.537,483.841 1119.538,486.634 C1115.714,488.415 1112.745,488.983 1107.217,488.990 C1101.456,488.998 1098.922,488.488 1095.097,486.549 C1090.120,484.027 1086.213,480.108 1083.214,474.630 C1081.698,471.862 1081.442,466.700 1081.000,430.000 L1080.500,388.500 L1077.532,383.141 C1073.804,376.411 1068.252,371.612 1061.095,368.934 C1056.038,367.042 1053.802,366.882 1036.516,367.176 C1019.191,367.471 1017.055,367.704 1012.500,369.797 C1005.623,372.955 998.709,380.050 995.356,387.390 C992.973,392.606 992.560,394.817 992.532,402.500 C992.504,410.305 992.872,412.297 995.302,417.500 C998.712,424.801 1003.842,430.302 1010.500,433.798 C1015.266,436.300 1016.414,436.449 1035.000,436.962 C1051.351,437.413 1055.111,437.804 1058.285,439.380 C1066.958,443.690 1071.707,454.030 1070.673,466.358 C1069.970,474.746 1066.573,480.948 1060.247,485.394 C1056.520,488.013 1054.870,488.438 1045.770,489.119 C1032.375,490.121 1014.174,489.990 1006.000,488.832 Z M1168.500,488.878 C1162.156,487.750 1159.326,486.342 1154.545,481.934 C1151.588,479.209 1149.384,475.970 1148.037,472.369 C1146.106,467.209 1146.000,464.730 1146.000,424.920 C1146.000,379.358 1146.445,374.403 1151.721,361.223 C1155.106,352.768 1162.412,341.785 1169.098,335.099 C1174.966,329.232 1185.324,322.076 1192.238,319.112 C1194.634,318.085 1200.371,316.290 1204.988,315.122 C1212.441,313.238 1216.187,313.001 1238.440,313.007 C1259.936,313.013 1264.672,313.295 1271.743,314.990 C1287.644,318.802 1303.479,328.525 1313.048,340.351 C1318.760,347.410 1324.389,357.679 1327.336,366.417 C1329.268,372.144 1329.409,375.278 1329.749,419.962 C1330.152,473.074 1330.225,472.416 1323.109,480.311 C1312.561,492.012 1293.399,491.967 1282.806,480.217 C1276.317,473.018 1276.003,470.572 1275.978,427.068 C1275.958,391.494 1275.810,388.179 1274.078,384.363 C1271.588,378.880 1265.600,372.371 1260.568,369.678 C1256.834,367.679 1255.064,367.500 1239.000,367.500 C1221.971,367.500 1221.365,367.572 1216.500,370.161 C1210.130,373.551 1205.713,378.174 1202.801,384.500 C1200.537,389.419 1200.496,390.150 1200.234,429.467 C1199.985,466.941 1199.845,469.688 1197.990,473.521 C1192.717,484.413 1180.161,490.951 1168.500,488.878 Z M1601.803,485.943 C1594.461,484.837 1581.746,480.580 1576.000,477.303 C1560.666,468.559 1548.612,455.713 1541.304,440.329 C1535.393,427.886 1533.047,416.735 1533.029,401.000 C1533.010,385.092 1535.289,375.046 1541.993,361.478 C1547.391,350.553 1554.734,340.921 1562.835,334.138 C1576.041,323.082 1593.972,315.267 1611.500,312.930 C1624.891,311.145 1646.037,312.268 1658.500,315.427 C1677.134,320.150 1694.075,330.633 1705.011,344.208 C1714.587,356.095 1721.000,373.650 1721.000,387.978 C1721.000,402.135 1716.534,411.183 1706.923,416.500 L1701.500,419.500 L1645.677,420.000 L1589.854,420.500 L1592.838,424.619 C1595.997,428.978 1599.877,432.137 1604.619,434.209 C1606.686,435.112 1617.958,435.613 1644.500,435.984 L1681.500,436.500 L1686.754,439.411 C1695.741,444.391 1699.000,450.520 1699.000,462.443 C1699.000,468.738 1698.613,470.227 1695.750,474.951 C1693.334,478.937 1691.088,481.108 1687.000,483.407 L1681.500,486.500 L1644.500,486.651 C1624.150,486.733 1604.936,486.415 1601.803,485.943 Z M1666.000,378.197 C1666.000,377.755 1664.662,375.575 1663.028,373.352 C1659.657,368.769 1654.784,365.142 1647.500,361.797 C1643.050,359.753 1641.014,359.504 1629.000,359.540 C1617.205,359.576 1614.742,359.880 1609.500,361.953 C1605.169,363.665 1601.741,366.082 1597.178,370.642 C1593.701,374.116 1591.140,377.418 1591.487,377.979 C1592.247,379.208 1666.000,379.424 1666.000,378.197 Z M278.001,422.877 C276.626,422.328 274.446,420.894 273.155,419.690 C267.775,414.667 267.999,418.749 268.012,325.800 C268.025,230.341 267.730,235.014 274.629,221.046 C277.219,215.802 280.422,211.481 285.434,206.469 C293.252,198.651 301.750,193.430 312.500,189.838 L319.500,187.500 L453.396,187.222 C599.112,186.920 596.113,186.819 610.510,192.506 C620.141,196.310 629.289,202.562 637.076,210.661 C645.255,219.168 650.935,228.696 655.161,241.000 C658.421,250.494 658.423,250.515 658.796,274.000 C659.097,292.971 658.861,298.849 657.569,304.500 C655.460,313.731 646.335,331.872 639.728,339.974 C629.007,353.119 614.015,363.240 597.973,368.162 L590.500,370.455 L469.000,370.978 L347.500,371.500 L342.992,373.722 C339.838,375.277 332.180,382.532 317.492,397.882 C304.662,411.290 294.919,420.632 292.434,421.910 C288.125,424.125 282.138,424.526 278.001,422.877 Z M399.255,303.391 C404.951,299.392 408.436,292.955 408.399,286.500 C408.303,269.835 388.984,260.231 375.835,270.312 C370.257,274.588 367.539,280.058 367.536,287.014 C367.532,294.902 371.221,300.921 378.235,304.472 C382.564,306.663 384.523,307.069 389.255,306.754 C393.627,306.464 396.031,305.655 399.255,303.391 Z M469.247,303.394 C471.577,301.757 474.517,298.636 475.781,296.458 C477.675,293.196 478.024,291.338 477.765,285.889 C477.347,277.108 474.004,271.842 466.686,268.434 C460.984,265.779 457.473,265.463 451.649,267.081 C444.440,269.082 436.983,279.031 437.006,286.616 C437.027,293.770 442.505,301.920 449.491,305.191 C455.494,308.000 463.763,307.249 469.247,303.394 Z M535.782,305.447 C540.215,303.595 544.588,299.629 546.748,295.500 C547.612,293.850 548.348,290.025 548.385,287.000 C548.515,276.442 540.752,267.587 530.280,266.347 C525.880,265.826 524.214,266.150 519.535,268.439 C515.375,270.474 513.352,272.250 511.403,275.574 C508.159,281.111 507.370,286.679 509.004,292.515 C510.522,297.937 516.201,304.150 521.054,305.697 C526.096,307.305 531.557,307.212 535.782,305.447 Z"/></svg>
